<?xml version="1.0" standalone="no"?><!DOCTYPE svg PUBLIC "-//W3C//DTD SVG 1.1//EN" "http://www.w3.org/Graphics/SVG/1.1/DTD/svg11.dtd"><svg t="1527057334701" class="icon" style="" viewBox="0 0 1025 1024" version="1.1" xmlns="http://www.w3.org/2000/svg" p-id="1905" xmlns:xlink="http://www.w3.org/1999/xlink" width="20.01953125" height="20"><defs><style type="text/css"></style></defs><path d="M192.712348 956.371478c-5.186783 0-10.373565-1.380174-14.981565-4.096-8.303304-4.919652-13.690435-13.55687-14.402783-23.173565l-11.820522-157.295304c-96.456348-76.911304-151.507478-182.850783-151.507478-292.530087C-0.022261 252.282435 229.732174 67.628522 512.133565 67.628522c282.37913 0 512.133565 184.653913 512.133565 411.648S794.534957 890.924522 512.133565 890.924522c-46.636522 0-92.783304-5.008696-137.327304-14.937043l-169.828174 77.712696C201.082435 955.481043 196.87513 956.371478 192.712348 956.371478zM512.133565 126.597565c-249.878261 0-453.186783 158.208-453.186783 352.678957 0 96.345043 49.263304 186.434783 138.685217 253.662609 6.789565 5.12 11.041391 12.889043 11.686957 21.370435l9.638957 128.155826 140.466087-64.26713c5.965913-2.782609 12.710957-3.428174 19.166609-1.869913 43.141565 10.373565 88.064 15.62713 133.587478 15.62713 249.878261 0 453.164522-158.208 453.164522-352.678957C965.320348 284.805565 762.011826 126.597565 512.133565 126.597565z" p-id="1906"></path></svg>