<svg id="svg" version="1.1" width="400" height="387.5" xmlns="http://www.w3.org/2000/svg" xmlns:xlink="http://www.w3.org/1999/xlink" style="display: block;"><g id="svgg"><path id="path0" d="M181.008 324.612 C 181.008 324.932,181.182 325.194,181.395 325.194 C 181.609 325.194,181.783 324.932,181.783 324.612 C 181.783 324.293,181.609 324.031,181.395 324.031 C 181.182 324.031,181.008 324.293,181.008 324.612 " stroke="none" fill="#000000" fill-rule="evenodd"></path><path id="path1" d="M181.008 3.869 L 181.008 7.737 179.942 7.952 C 173.765 9.199,170.543 12.340,170.543 17.113 C 170.543 17.494,170.201 18.465,169.784 19.271 C 169.118 20.558,168.969 22.157,168.554 32.439 L 168.082 44.141 166.696 44.337 C 165.934 44.446,164.339 44.639,163.153 44.767 C 160.442 45.059,158.645 46.134,157.905 47.906 C 156.972 50.138,155.864 65.456,155.829 76.605 L 155.814 81.312 151.841 81.590 C 147.388 81.902,145.641 82.456,144.922 83.785 C 144.281 84.969,143.461 99.615,143.433 110.368 L 143.411 118.605 82.849 118.702 C 49.540 118.755,17.316 118.798,11.240 118.798 L 0.194 118.798 0.095 149.322 L -0.005 179.845 2.918 179.845 C 4.965 179.845,6.130 180.034,6.804 180.476 C 7.525 180.949,9.080 181.157,13.008 181.307 C 19.229 181.544,18.827 181.167,19.089 187.016 C 19.372 193.340,19.234 193.222,26.767 193.614 L 31.636 193.868 32.055 197.648 C 32.872 205.006,34.595 205.824,50.621 206.465 L 56.087 206.683 56.341 211.706 C 56.698 218.763,56.242 218.359,64.385 218.830 L 68.886 219.091 69.288 223.507 C 69.945 230.732,69.897 230.712,88.857 231.667 L 93.411 231.897 93.411 244.049 L 93.411 256.202 92.539 256.221 C 88.266 256.318,83.179 256.965,82.668 257.476 C 81.701 258.443,81.447 260.911,81.160 272.158 L 80.885 282.882 79.493 283.127 C 73.958 284.099,70.543 287.625,70.543 292.370 C 70.543 292.785,70.195 293.688,69.770 294.375 C 69.067 295.514,68.264 307.796,68.222 318.063 L 68.217 319.266 64.581 319.483 C 57.297 319.917,57.203 320.105,56.192 336.423 C 55.961 340.147,55.738 343.225,55.696 343.263 C 55.654 343.300,51.783 343.534,47.093 343.782 C 30.341 344.669,31.622 343.066,31.602 363.178 C 31.585 381.472,31.251 380.654,38.857 380.935 L 43.411 381.103 43.411 384.350 L 43.411 387.597 68.798 387.597 L 94.186 387.597 94.186 384.745 L 94.186 381.893 98.934 381.618 C 101.546 381.467,103.834 381.195,104.020 381.012 C 104.206 380.830,104.585 380.768,104.862 380.874 C 106.042 381.327,106.336 379.509,106.569 370.310 C 106.588 369.545,106.866 369.480,111.249 369.233 C 119.215 368.783,118.986 369.022,118.990 361.143 L 118.992 356.589 127.616 356.543 C 132.359 356.517,137.243 356.533,138.469 356.579 C 139.695 356.624,140.698 356.494,140.698 356.291 C 140.698 356.088,141.160 356.010,141.724 356.118 C 142.427 356.252,142.665 356.175,142.479 355.875 C 142.310 355.601,142.415 355.515,142.755 355.645 C 143.445 355.910,143.725 354.392,144.055 348.592 L 144.300 344.278 155.192 344.096 C 169.526 343.857,168.565 344.370,168.890 336.781 L 169.099 331.895 173.794 331.641 C 181.208 331.240,181.793 330.787,181.248 325.872 C 181.132 324.821,181.203 324.031,181.414 324.031 C 181.617 324.031,181.783 322.984,181.783 321.705 L 181.783 319.380 184.302 319.380 C 185.688 319.380,186.822 319.238,186.822 319.064 C 186.822 318.891,187.868 318.825,189.147 318.917 C 190.475 319.013,191.473 318.928,191.473 318.717 C 191.473 318.515,191.864 318.363,192.342 318.380 C 193.033 318.405,193.285 318.113,193.573 316.957 C 193.987 315.295,194.389 315.101,194.716 316.406 C 195.070 317.814,196.684 318.277,202.254 318.566 C 207.948 318.862,207.907 318.842,208.279 321.557 C 208.883 325.963,212.782 329.457,217.093 329.457 C 218.196 329.457,218.992 329.891,218.992 330.492 C 218.992 330.814,219.284 331.008,219.671 330.945 C 220.044 330.884,220.568 330.970,220.835 331.138 C 221.102 331.306,223.501 331.546,226.164 331.672 L 231.008 331.901 231.009 332.908 C 231.022 344.200,230.660 343.682,238.803 344.057 L 244.080 344.301 244.285 348.033 C 244.529 352.449,245.251 354.485,246.784 355.072 C 248.421 355.699,259.446 356.569,265.930 356.584 L 268.489 356.589 268.709 361.725 C 269.026 369.092,268.504 368.571,275.879 368.888 C 281.858 369.145,281.266 368.524,281.521 374.806 C 281.774 381.013,281.544 380.817,289.099 381.228 L 294.186 381.505 294.186 384.551 L 294.186 387.597 325.194 387.597 L 356.202 387.597 356.181 376.066 C 356.145 356.307,356.364 356.901,349.038 356.657 L 344.186 356.496 344.177 354.120 C 344.143 345.673,343.376 333.150,342.824 332.043 C 342.496 331.386,341.964 329.707,341.642 328.312 C 340.581 323.725,338.159 321.490,333.430 320.737 C 331.801 320.477,331.783 320.457,331.770 318.861 C 331.719 312.343,330.980 295.817,330.649 293.779 C 330.425 292.404,330.067 290.145,329.852 288.760 C 329.196 284.517,327.596 283.181,322.328 282.476 L 318.992 282.029 318.992 273.742 C 318.992 261.903,318.073 249.872,316.987 247.488 C 316.358 246.106,314.134 245.025,311.366 244.754 C 307.440 244.370,306.589 244.168,306.589 243.623 C 306.589 243.277,307.288 243.011,308.624 242.848 C 315.714 241.984,317.107 240.636,317.702 234.059 L 317.934 231.489 323.252 231.215 C 330.957 230.818,330.790 230.986,331.231 223.201 L 331.464 219.077 336.953 218.867 C 354.607 218.192,355.124 217.948,355.686 210.022 C 355.910 206.876,355.998 206.588,356.744 206.577 C 360.960 206.516,367.247 205.787,367.730 205.304 C 368.237 204.797,368.920 199.423,368.975 195.505 L 368.992 194.305 373.934 194.038 C 394.794 192.908,393.411 193.573,393.411 184.671 L 393.411 181.395 396.705 181.395 L 400.000 181.395 400.000 150.000 L 400.000 118.605 334.550 118.605 L 269.101 118.605 268.827 109.787 C 268.341 94.138,268.542 94.571,261.550 94.158 C 258.928 94.003,256.739 93.859,256.686 93.838 C 256.633 93.816,256.586 90.092,256.583 85.562 C 256.574 74.604,255.921 59.752,255.391 58.455 C 254.841 57.110,253.301 56.590,249.845 56.585 C 248.332 56.583,246.466 56.477,245.699 56.350 L 244.306 56.120 244.029 42.885 C 243.510 18.103,243.852 19.356,237.529 19.108 C 235.328 19.022,233.135 18.870,232.655 18.771 L 231.783 18.590 231.783 9.295 L 231.783 0.000 206.395 0.000 L 181.008 0.000 181.008 3.869 " stroke="none" fill="#ffffff" fill-rule="evenodd"></path></g></svg>