<svg id="svg" version="1.1" width="400" height="387.5" xmlns="http://www.w3.org/2000/svg" xmlns:xlink="http://www.w3.org/1999/xlink" style="display: block;"><g id="svgg"><path id="path0" d="M200.000 12.833 L 193.993 15.109 187.791 15.184 L 181.589 15.258 181.364 12.958 C 181.240 11.694,181.109 15.215,181.073 20.785 L 181.008 30.910 181.978 32.646 C 183.124 34.697,184.319 38.025,185.097 41.336 C 186.031 45.308,182.650 55.381,180.354 55.467 C 175.545 55.647,170.544 55.565,170.543 55.307 C 170.543 55.134,170.368 55.101,170.155 55.233 C 169.942 55.364,169.744 55.157,169.716 54.771 C 169.688 54.385,169.537 54.680,169.380 55.426 L 169.094 56.783 169.043 55.136 C 169.015 54.230,168.818 53.488,168.605 53.488 C 168.360 53.488,168.217 56.195,168.217 60.833 L 168.217 68.178 169.399 69.930 C 173.784 76.427,173.926 83.725,169.814 91.328 L 168.793 93.217 163.049 93.242 C 158.502 93.263,157.231 93.384,156.953 93.824 C 156.705 94.216,156.584 93.923,156.543 92.829 L 156.486 91.279 156.184 93.217 C 156.018 94.283,155.867 100.419,155.848 106.853 L 155.814 118.551 154.942 118.675 C 154.462 118.743,154.157 118.973,154.264 119.186 C 154.370 119.399,154.545 119.543,154.651 119.505 C 154.758 119.468,155.121 119.330,155.459 119.198 C 155.821 119.057,156.083 119.164,156.099 119.460 C 156.674 130.261,156.679 131.384,156.158 131.551 C 155.862 131.646,154.164 131.827,152.384 131.954 C 149.724 132.143,147.912 132.563,147.626 133.056 C 147.600 133.102,147.382 135.650,147.142 138.719 L 146.705 144.298 145.349 145.378 L 143.992 146.458 75.134 146.569 L 6.276 146.679 6.049 148.049 C 5.340 152.332,6.020 167.414,6.964 168.360 C 7.234 168.630,9.475 168.850,12.810 168.933 L 18.217 169.067 18.217 172.130 C 18.217 174.755,18.311 175.194,18.876 175.194 C 19.388 175.194,19.432 175.297,19.070 175.659 C 18.548 176.181,18.426 179.070,18.926 179.070 C 19.103 179.070,19.234 179.462,19.217 179.942 C 19.198 180.472,19.414 180.814,19.767 180.814 C 20.087 180.814,20.445 180.942,20.562 181.099 C 20.900 181.551,31.008 181.963,31.008 181.525 C 31.008 179.383,34.935 177.907,40.636 177.907 L 44.025 177.907 45.667 179.580 L 47.309 181.253 47.265 186.929 C 47.241 190.050,47.328 192.777,47.459 192.988 C 47.699 193.377,46.428 193.686,43.605 193.925 C 42.752 193.997,45.123 194.085,48.874 194.121 L 55.694 194.186 55.944 199.128 C 56.330 206.761,55.832 206.246,63.081 206.499 L 68.217 206.679 68.217 209.541 C 68.217 212.171,68.282 212.403,69.014 212.403 C 69.761 212.403,69.773 212.458,69.208 213.265 C 68.577 214.165,68.370 216.667,68.926 216.667 C 69.103 216.667,69.234 217.059,69.217 217.539 C 69.193 218.202,69.395 218.403,70.058 218.380 C 70.538 218.363,70.930 218.494,70.930 218.671 C 70.930 218.848,71.628 218.992,72.481 218.992 C 73.938 218.992,74.594 218.469,73.566 218.127 C 73.274 218.029,73.344 217.878,73.755 217.721 C 74.138 217.574,74.371 217.645,74.317 217.892 C 74.266 218.124,74.443 218.394,74.709 218.492 C 74.976 218.589,75.194 218.470,75.194 218.226 C 75.194 217.983,75.371 217.893,75.588 218.027 C 75.804 218.161,75.890 218.419,75.778 218.600 C 75.667 218.780,76.799 218.986,78.294 219.057 L 81.014 219.186 81.409 217.983 C 82.549 214.522,94.017 214.326,96.438 217.727 C 97.511 219.234,97.918 230.989,96.899 231.036 C 94.576 231.142,98.635 231.734,101.841 231.756 L 105.814 231.783 105.843 234.787 C 105.870 237.623,106.430 242.170,106.547 240.504 C 106.592 239.857,106.663 239.825,106.977 240.310 C 107.237 240.713,107.354 240.740,107.358 240.397 C 107.363 240.013,108.681 239.926,113.243 240.009 L 119.122 240.116 120.239 241.935 L 121.356 243.754 120.592 245.230 C 119.036 248.236,119.401 248.098,112.976 248.124 C 109.084 248.140,107.077 248.294,106.886 248.590 C 106.729 248.832,106.577 248.421,106.547 247.674 C 106.494 246.377,106.479 246.394,106.182 248.062 C 105.700 250.768,105.741 268.519,106.231 269.434 C 106.460 269.863,107.158 272.685,107.783 275.707 C 109.018 281.685,109.002 281.900,107.093 284.981 L 106.192 286.434 100.415 286.434 C 96.156 286.434,94.587 286.561,94.443 286.919 C 94.286 287.306,94.241 287.306,94.217 286.919 C 94.200 286.652,94.012 286.434,93.798 286.434 C 93.122 286.434,93.291 305.843,93.979 307.222 C 94.660 308.586,96.365 314.975,96.719 317.486 C 96.984 319.363,95.019 324.621,93.752 325.426 C 93.074 325.856,83.334 325.885,83.333 325.457 C 83.333 325.282,83.048 325.424,82.699 325.772 C 81.816 326.655,81.463 326.120,81.295 323.643 C 81.216 322.471,81.119 326.578,81.079 332.771 C 81.040 338.964,81.161 344.197,81.348 344.399 C 81.850 344.944,83.134 348.934,84.100 352.950 L 84.949 356.482 83.796 358.764 C 81.877 362.563,81.957 362.529,75.227 362.311 C 69.554 362.127,69.416 362.142,69.259 362.941 C 69.170 363.391,69.074 363.018,69.045 362.112 C 69.015 361.168,68.804 360.465,68.550 360.465 C 67.978 360.465,68.328 378.400,68.931 379.921 C 69.552 381.488,70.679 381.589,87.597 381.589 C 108.008 381.589,106.175 382.270,106.488 374.571 L 106.695 369.490 111.302 369.230 C 119.207 368.783,118.986 369.015,118.990 361.143 L 118.992 356.589 125.678 356.528 C 129.356 356.494,133.262 356.509,134.360 356.562 C 135.457 356.615,136.757 356.444,137.248 356.181 C 137.907 355.828,138.180 355.819,138.289 356.146 C 138.608 357.102,141.165 356.677,140.866 355.717 C 140.598 354.857,140.606 354.855,141.407 355.570 C 141.887 355.999,142.485 356.193,142.870 356.046 C 143.585 355.771,143.291 355.245,142.419 355.238 C 142.116 355.235,141.875 355.058,141.883 354.845 C 141.890 354.632,142.303 354.511,142.800 354.576 C 143.839 354.712,144.518 349.949,143.999 346.172 L 143.741 344.297 149.099 344.089 C 156.705 343.795,156.190 344.291,156.489 336.961 L 156.696 331.867 160.651 331.721 C 166.065 331.520,165.891 331.761,165.891 324.459 L 165.891 318.630 167.261 317.261 C 168.823 315.699,169.071 315.671,174.440 316.432 C 178.147 316.957,180.042 317.635,180.987 318.773 C 181.536 319.435,187.597 319.688,187.597 319.049 C 187.597 318.867,188.425 318.795,189.438 318.889 C 191.622 319.092,193.587 318.461,193.278 317.655 C 193.162 317.352,193.235 317.048,193.441 316.980 C 193.646 316.911,193.925 314.545,194.060 311.722 L 194.306 306.589 200.000 306.589 L 205.694 306.589 205.940 311.722 C 206.075 314.545,206.354 316.911,206.559 316.980 C 206.765 317.048,206.838 317.352,206.722 317.655 C 206.293 318.774,210.918 319.547,211.938 318.527 C 212.300 318.165,212.403 318.208,212.403 318.721 C 212.403 319.285,212.839 319.380,215.416 319.380 L 218.428 319.380 219.161 318.020 C 220.083 316.307,222.136 315.634,227.547 315.269 L 231.392 315.011 233.138 316.757 L 234.884 318.503 234.884 324.901 L 234.884 331.298 236.095 331.541 C 236.761 331.674,238.655 331.783,240.304 331.783 L 243.301 331.783 243.510 336.919 C 243.810 344.294,243.299 343.795,250.852 344.087 C 255.866 344.282,256.171 344.339,256.323 345.112 C 256.455 345.782,256.493 345.747,256.536 344.914 C 256.597 343.741,257.214 343.605,264.433 343.170 C 270.065 342.831,269.790 342.482,269.695 349.855 C 269.621 355.721,269.555 356.004,268.314 355.843 C 268.047 355.808,267.829 355.962,267.829 356.185 C 267.829 356.450,270.100 356.589,274.419 356.589 L 281.008 356.589 281.010 361.143 C 281.014 369.015,280.793 368.783,288.698 369.230 L 293.305 369.490 293.512 374.571 C 293.825 382.270,291.992 381.589,312.403 381.589 C 329.322 381.589,330.449 381.488,331.068 379.921 C 331.810 378.042,332.009 360.853,331.289 360.853 C 330.957 360.853,330.619 360.656,330.539 360.415 C 330.438 360.112,328.591 359.995,324.540 360.035 L 318.687 360.093 317.677 358.893 C 315.965 356.858,316.151 352.712,318.259 345.930 C 318.892 343.895,318.983 342.243,318.987 332.706 L 318.992 321.808 312.727 321.819 L 306.461 321.831 305.530 320.702 C 304.462 319.406,304.498 317.257,305.705 310.434 C 306.370 306.673,306.859 279.905,306.207 282.946 C 306.011 283.857,305.899 284.016,305.865 283.430 C 305.837 282.951,305.596 282.546,305.329 282.530 C 305.063 282.515,302.387 282.522,299.383 282.547 C 292.335 282.604,292.748 283.096,293.425 275.469 C 293.920 269.881,294.129 252.708,293.794 245.155 C 293.708 243.236,293.788 239.443,293.971 236.725 L 294.304 231.783 298.218 231.756 C 304.042 231.715,303.621 232.254,303.525 224.974 L 303.444 218.798 304.806 217.479 L 306.168 216.159 310.158 216.410 C 314.769 216.700,316.545 217.124,318.023 218.286 C 319.155 219.177,323.058 219.343,325.050 218.586 C 325.628 218.366,325.969 218.377,325.969 218.614 C 325.969 218.822,326.667 218.992,327.519 218.992 C 328.372 218.992,329.070 218.848,329.070 218.671 C 329.070 218.494,329.462 218.363,329.942 218.380 C 330.605 218.403,330.807 218.202,330.783 217.539 C 330.766 217.059,330.921 216.667,331.127 216.667 C 331.354 216.667,331.403 215.822,331.252 214.535 C 331.094 213.194,331.146 212.403,331.392 212.403 C 331.620 212.403,331.783 211.207,331.783 209.541 L 331.783 206.679 336.919 206.499 C 344.168 206.246,343.670 206.761,344.056 199.128 L 344.306 194.186 351.126 194.140 C 355.888 194.109,357.396 194.002,356.124 193.788 C 355.122 193.619,354.158 193.392,353.982 193.283 C 353.806 193.174,353.613 190.472,353.553 187.279 L 353.443 181.474 354.669 180.078 C 356.069 178.483,357.137 178.351,362.666 179.085 C 366.258 179.562,367.665 180.061,368.408 181.122 C 368.967 181.920,378.839 181.900,379.438 181.099 C 379.555 180.942,379.913 180.814,380.233 180.814 C 380.604 180.814,380.781 180.500,380.722 179.942 C 380.671 179.462,380.826 179.070,381.066 179.070 C 381.363 179.070,381.430 178.447,381.274 177.132 C 381.140 176.001,381.198 175.194,381.414 175.194 C 381.617 175.194,381.783 173.815,381.783 172.130 L 381.783 169.067 387.190 168.933 C 390.525 168.850,392.766 168.630,393.036 168.360 C 393.990 167.405,394.657 152.322,393.939 147.976 L 393.700 146.533 387.451 146.587 C 384.014 146.617,353.083 146.612,318.715 146.576 L 256.229 146.512 254.807 145.263 L 253.385 144.015 253.611 140.321 C 253.931 135.083,254.521 132.760,255.829 131.576 C 256.700 130.788,256.938 127.519,256.124 127.519 C 255.762 127.519,255.762 127.416,256.124 127.054 C 256.810 126.368,256.731 122.511,256.026 122.240 C 255.576 122.067,255.554 121.878,255.919 121.293 C 256.296 120.690,256.242 120.453,255.610 119.942 C 255.189 119.601,255.107 119.448,255.426 119.602 C 255.874 119.817,255.906 119.770,255.565 119.401 C 255.231 119.038,254.924 119.027,254.314 119.353 C 253.644 119.712,253.544 119.685,253.732 119.195 C 253.909 118.734,253.654 118.605,252.561 118.605 C 251.792 118.605,251.163 118.775,251.163 118.983 C 251.163 119.228,250.815 119.228,250.169 118.983 C 249.622 118.775,248.052 118.605,246.680 118.605 L 244.186 118.605 244.186 107.342 C 244.186 94.510,243.686 88.585,242.650 89.140 C 242.297 89.328,239.633 89.495,236.730 89.509 C 230.516 89.540,230.694 89.653,228.673 84.412 L 227.470 81.293 228.651 76.683 C 229.300 74.148,230.270 71.146,230.807 70.011 C 231.858 67.789,232.373 52.326,231.395 52.326 C 231.182 52.326,231.008 51.759,231.008 51.066 L 231.008 49.806 224.853 49.929 L 218.697 50.052 217.297 47.813 C 215.123 44.338,215.448 39.212,218.258 32.656 C 218.917 31.119,218.992 29.892,218.992 20.707 L 218.992 10.470 212.500 10.514 L 206.008 10.557 200.000 12.833 M168.217 38.760 C 168.217 39.399,168.366 39.922,168.549 39.922 C 168.732 39.922,168.862 39.400,168.840 38.761 C 168.786 37.244,168.217 37.243,168.217 38.760 M231.008 38.760 C 231.008 39.399,231.182 39.922,231.395 39.922 C 231.609 39.922,231.783 39.399,231.783 38.760 C 231.783 38.120,231.609 37.597,231.395 37.597 C 231.182 37.597,231.008 38.120,231.008 38.760 M162.403 68.551 C 162.403 68.735,162.839 68.801,163.372 68.700 C 163.905 68.598,164.341 68.447,164.341 68.366 C 164.341 68.284,163.905 68.217,163.372 68.217 C 162.839 68.217,162.403 68.367,162.403 68.551 M235.659 68.605 C 235.659 68.818,236.095 68.992,236.628 68.992 C 237.161 68.992,237.597 68.818,237.597 68.605 C 237.597 68.391,237.161 68.217,236.628 68.217 C 236.095 68.217,235.659 68.391,235.659 68.605 M206.801 82.338 C 207.582 83.530,208.735 86.529,209.940 90.504 C 211.153 94.507,209.789 100.818,206.715 105.419 C 205.853 106.710,205.816 107.065,205.852 113.559 C 205.886 119.566,206.376 126.608,206.541 123.450 C 206.574 122.810,206.729 122.468,206.886 122.689 C 207.062 122.937,209.394 123.085,212.984 123.076 L 218.798 123.062 220.250 125.969 C 222.479 130.434,222.581 131.053,221.682 134.667 C 220.072 141.144,218.968 143.794,217.859 143.843 C 217.296 143.869,217.134 143.961,217.489 144.056 C 218.044 144.204,218.143 145.510,218.326 155.155 C 218.557 167.298,218.692 168.194,220.371 168.734 C 221.046 168.951,238.882 169.173,264.086 169.277 L 306.660 169.454 306.427 170.289 C 306.299 170.748,306.082 173.348,305.944 176.066 L 305.694 181.008 301.552 181.008 L 297.409 181.008 297.578 187.422 L 297.746 193.837 295.773 195.810 L 293.800 197.784 288.663 197.509 C 282.951 197.204,281.994 196.852,281.478 194.863 C 281.121 193.483,279.875 192.888,279.800 194.061 C 279.759 194.709,279.740 194.712,279.578 194.089 C 279.429 193.519,278.935 193.411,276.477 193.411 C 273.744 193.411,273.566 193.462,273.756 194.186 C 273.867 194.612,273.773 195.075,273.547 195.215 C 273.287 195.376,273.252 195.281,273.453 194.955 C 273.683 194.583,273.594 194.510,273.130 194.688 C 272.735 194.839,272.525 194.753,272.582 194.463 C 272.738 193.670,270.544 193.658,269.899 194.448 C 269.582 194.837,269.449 194.910,269.605 194.611 C 269.797 194.240,269.736 194.160,269.413 194.359 C 269.153 194.520,269.033 194.896,269.147 195.194 C 269.262 195.492,269.187 195.736,268.980 195.736 C 268.774 195.736,268.605 196.347,268.605 197.093 C 268.605 198.536,268.887 198.746,269.777 197.965 C 270.080 197.699,270.030 197.841,269.666 198.280 C 269.154 198.897,269.108 199.185,269.463 199.540 C 269.817 199.895,269.728 200.000,269.070 200.000 C 268.269 200.000,268.217 200.172,268.217 202.848 L 268.217 205.696 263.383 205.954 C 255.981 206.350,256.333 205.987,255.946 213.627 L 255.698 218.533 250.348 218.666 C 243.186 218.843,243.455 218.382,243.428 230.537 C 243.405 240.536,242.950 239.911,250.209 239.844 C 256.356 239.787,256.524 239.841,257.767 242.277 C 258.533 243.779,257.982 249.127,256.526 254.318 C 255.962 256.328,255.625 272.078,256.055 276.357 C 256.307 278.873,256.382 279.081,256.611 277.907 C 256.756 277.161,256.898 276.768,256.926 277.035 C 256.954 277.301,257.108 277.499,257.267 277.473 C 257.427 277.448,260.087 277.449,263.178 277.474 L 268.798 277.521 269.910 279.280 L 271.021 281.039 269.991 287.093 C 268.768 294.283,269.003 293.798,266.738 293.798 C 265.737 293.798,264.352 293.961,263.660 294.159 C 262.969 294.357,262.403 294.374,262.403 294.196 C 262.403 294.019,261.487 293.777,260.368 293.660 C 259.249 293.543,257.984 293.395,257.558 293.331 C 257.051 293.255,256.510 293.618,255.993 294.379 C 254.835 296.086,253.626 296.502,248.435 296.979 L 243.758 297.409 242.052 295.734 L 240.346 294.060 240.231 287.921 C 240.168 284.544,240.247 281.782,240.407 281.782 C 240.567 281.783,240.698 281.609,240.698 281.395 C 240.698 281.160,238.972 281.008,236.297 281.008 L 231.896 281.008 231.631 276.232 C 231.192 268.328,231.572 268.703,223.934 268.643 C 220.391 268.616,218.992 268.474,218.992 268.143 C 218.992 267.875,218.789 267.946,218.508 268.311 C 217.997 268.974,217.676 269.013,201.240 270.401 C 190.694 271.292,181.460 270.308,181.365 268.283 C 181.346 267.880,181.260 267.818,181.139 268.120 C 180.998 268.469,179.568 268.615,176.034 268.643 C 168.432 268.703,168.808 268.331,168.369 276.232 L 168.104 281.008 163.606 281.020 C 159.783 281.031,159.210 281.110,159.787 281.547 C 160.382 281.999,160.465 282.806,160.465 288.143 L 160.465 294.223 158.546 296.142 L 156.626 298.062 150.987 298.062 C 146.738 298.062,145.347 298.181,145.343 298.547 C 145.339 298.870,145.212 298.837,144.961 298.450 C 144.607 297.901,144.546 297.941,144.428 298.805 C 144.402 299.000,144.249 299.291,144.089 299.451 C 143.929 299.611,143.798 301.195,143.798 302.972 C 143.798 305.279,143.660 306.211,143.314 306.236 C 142.544 306.291,136.790 306.250,134.981 306.177 C 133.764 306.128,133.322 305.945,133.288 305.478 C 133.250 304.941,133.216 304.948,133.066 305.523 C 132.969 305.896,132.698 306.202,132.465 306.202 C 132.232 306.202,132.143 306.100,132.267 305.975 C 132.392 305.851,132.266 305.209,131.989 304.549 C 131.634 303.705,131.595 303.033,131.856 302.283 C 132.105 301.567,132.088 300.958,131.802 300.424 C 131.452 299.769,131.481 299.670,131.968 299.856 C 132.292 299.981,132.582 300.457,132.611 300.914 C 132.662 301.712,132.670 301.710,132.832 300.866 C 132.930 300.360,133.179 300.098,133.421 300.248 C 133.673 300.404,133.729 300.326,133.560 300.054 C 133.406 299.804,133.137 299.688,132.963 299.796 C 132.392 300.149,131.674 298.848,131.586 297.302 C 131.512 295.993,131.576 295.861,132.051 296.337 C 132.631 296.917,134.265 296.875,134.354 296.279 C 134.517 295.192,135.018 294.224,135.322 294.411 C 135.514 294.530,135.554 294.833,135.409 295.085 C 135.265 295.337,135.291 295.412,135.467 295.253 C 135.643 295.093,135.828 294.483,135.877 293.896 C 135.927 293.309,135.884 293.047,135.781 293.314 C 135.500 294.043,132.946 293.943,132.946 293.203 C 132.946 292.738,132.785 292.695,132.205 293.005 C 131.331 293.472,130.849 289.583,131.077 283.915 L 131.202 280.814 136.628 280.795 C 139.612 280.785,142.340 280.912,142.690 281.077 C 144.216 281.798,144.649 263.895,143.458 249.276 C 142.872 242.069,142.447 242.531,149.493 242.714 C 152.543 242.793,155.039 242.710,155.039 242.530 C 155.039 242.350,155.213 242.310,155.426 242.442 C 155.640 242.574,155.837 242.279,155.865 241.786 C 155.901 241.162,156.002 241.301,156.202 242.248 C 156.359 242.994,156.502 238.983,156.521 233.333 C 156.572 218.024,156.958 218.847,149.652 218.666 L 144.302 218.533 144.054 213.627 C 143.667 205.987,144.019 206.350,136.617 205.954 L 131.783 205.696 131.783 202.848 C 131.783 201.282,131.629 200.000,131.441 200.000 C 131.252 200.000,131.007 199.651,130.895 199.225 C 130.784 198.798,130.851 198.450,131.044 198.450 C 131.237 198.450,131.395 197.839,131.395 197.093 C 131.395 196.062,131.233 195.735,130.717 195.730 C 130.141 195.725,130.126 195.669,130.617 195.359 C 131.109 195.048,131.115 194.919,130.657 194.493 C 130.212 194.079,130.167 194.093,130.398 194.574 C 130.552 194.893,130.417 194.835,130.098 194.445 C 129.142 193.273,118.778 193.028,118.416 194.169 C 117.525 196.976,107.116 197.950,104.571 195.464 L 103.101 194.029 103.097 188.972 C 103.094 186.190,102.984 183.261,102.852 182.461 L 102.612 181.008 98.459 181.008 L 94.306 181.008 94.056 176.066 C 93.918 173.348,93.701 170.748,93.573 170.289 L 93.340 169.454 135.914 169.277 C 161.118 169.173,178.954 168.951,179.629 168.734 C 181.308 168.194,181.443 167.299,181.674 155.136 C 181.859 145.403,181.952 144.182,182.511 144.147 C 182.857 144.126,182.715 143.990,182.195 143.845 C 181.077 143.533,180.947 143.122,179.803 136.240 L 178.955 131.147 180.028 129.318 L 181.100 127.488 186.651 127.541 C 189.704 127.570,192.387 127.479,192.613 127.340 C 192.852 127.192,193.045 127.458,193.076 127.981 C 193.262 131.141,194.126 120.223,194.153 114.371 C 194.185 107.554,194.141 107.118,193.182 104.722 C 189.966 96.684,189.800 93.312,192.362 88.073 L 193.638 85.465 199.435 83.480 C 206.356 81.110,206.030 81.160,206.801 82.338 M146.078 119.089 C 146.053 119.356,146.065 119.809,146.104 120.097 C 146.144 120.385,145.990 120.505,145.762 120.365 C 145.535 120.224,145.349 119.858,145.349 119.551 C 145.349 118.881,144.730 118.813,144.343 119.440 C 144.161 119.734,144.253 119.790,144.611 119.605 C 144.910 119.449,144.810 119.602,144.388 119.943 C 143.562 120.612,143.882 121.709,144.989 121.997 C 145.365 122.095,145.327 121.966,144.870 121.595 C 144.501 121.294,144.310 120.935,144.447 120.798 C 144.584 120.661,144.930 120.744,145.216 120.981 C 145.502 121.218,145.739 121.261,145.742 121.075 C 145.746 120.889,145.918 120.998,146.126 121.318 C 146.404 121.746,146.468 121.572,146.367 120.661 C 146.277 119.840,146.420 119.349,146.790 119.207 C 147.621 118.888,147.674 118.929,147.396 119.671 C 147.177 120.255,147.229 120.278,147.771 119.837 C 148.268 119.433,148.588 119.423,149.297 119.788 L 150.194 120.251 149.338 119.428 C 148.403 118.528,146.153 118.295,146.078 119.089 M150.685 119.057 C 151.020 119.392,151.368 119.399,152.022 119.083 C 152.853 118.683,152.826 118.656,151.570 118.631 C 150.550 118.611,150.340 118.712,150.685 119.057 M143.411 124.612 C 143.411 125.785,143.585 126.744,143.798 126.744 C 144.202 126.744,144.230 126.652,144.365 124.903 C 144.410 124.317,144.575 123.488,144.731 123.062 C 144.922 122.541,144.810 122.604,144.390 123.256 C 143.806 124.163,143.781 124.169,144.002 123.353 C 144.139 122.846,144.065 122.481,143.825 122.481 C 143.581 122.481,143.411 123.360,143.411 124.612 M143.411 129.070 C 143.411 129.922,143.546 130.620,143.712 130.620 C 143.877 130.620,143.946 129.922,143.865 129.070 C 143.784 128.217,143.648 127.519,143.564 127.519 C 143.480 127.519,143.411 128.217,143.411 129.070 M9.302 131.535 C 9.302 131.889,9.622 132.002,10.271 131.878 C 10.804 131.776,11.240 131.538,11.240 131.350 C 11.240 131.162,10.804 131.008,10.271 131.008 C 9.712 131.008,9.302 131.231,9.302 131.535 M15.026 131.289 C 15.723 131.375,16.769 131.373,17.352 131.285 C 17.934 131.196,17.364 131.126,16.085 131.128 C 14.806 131.130,14.330 131.202,15.026 131.289 M382.856 131.289 C 383.552 131.375,384.599 131.373,385.181 131.285 C 385.764 131.196,385.194 131.126,383.915 131.128 C 382.636 131.130,382.159 131.202,382.856 131.289 M388.760 131.350 C 388.760 131.538,389.196 131.776,389.729 131.878 C 390.378 132.002,390.698 131.889,390.698 131.535 C 390.698 131.231,390.288 131.008,389.729 131.008 C 389.196 131.008,388.760 131.162,388.760 131.350 M7.599 131.849 C 7.789 132.156,7.665 132.220,7.214 132.047 C 6.782 131.881,6.641 131.941,6.812 132.218 C 6.957 132.453,6.862 132.777,6.601 132.939 C 6.339 133.100,6.193 133.560,6.277 133.961 C 6.403 134.568,6.527 134.495,7.019 133.527 C 7.344 132.888,7.846 132.418,8.134 132.483 C 8.565 132.581,8.569 132.495,8.158 131.999 C 7.572 131.293,7.192 131.191,7.599 131.849 M391.842 131.999 C 391.431 132.495,391.435 132.581,391.866 132.483 C 392.154 132.418,392.656 132.888,392.981 133.527 C 393.473 134.495,393.597 134.568,393.723 133.961 C 393.807 133.560,393.661 133.100,393.399 132.939 C 393.138 132.777,393.043 132.453,393.188 132.218 C 393.359 131.941,393.218 131.881,392.786 132.047 C 392.335 132.220,392.211 132.156,392.401 131.849 C 392.808 131.191,392.428 131.293,391.842 131.999 M193.896 137.403 C 193.900 138.256,193.980 138.559,194.073 138.077 C 194.165 137.595,194.162 136.897,194.065 136.526 C 193.968 136.156,193.892 136.550,193.896 137.403 M205.912 137.403 C 205.916 138.256,205.995 138.559,206.088 138.077 C 206.181 137.595,206.177 136.897,206.080 136.526 C 205.983 136.156,205.907 136.550,205.912 137.403 M5.912 137.791 C 5.916 138.643,5.995 138.947,6.088 138.464 C 6.181 137.982,6.177 137.285,6.080 136.914 C 5.983 136.544,5.907 136.938,5.912 137.791 M393.896 137.791 C 393.900 138.643,393.980 138.947,394.073 138.464 C 394.165 137.982,394.162 137.285,394.065 136.914 C 393.968 136.544,393.892 136.938,393.896 137.791 M187.306 144.066 C 187.679 144.163,188.290 144.163,188.663 144.066 C 189.036 143.968,188.731 143.888,187.984 143.888 C 187.238 143.888,186.933 143.968,187.306 144.066 M211.337 144.066 C 211.710 144.163,212.321 144.163,212.694 144.066 C 213.067 143.968,212.762 143.888,212.016 143.888 C 211.269 143.888,210.964 143.968,211.337 144.066 M36.208 193.850 C 36.094 194.035,36.534 194.186,37.186 194.186 C 37.839 194.186,38.372 194.119,38.372 194.037 C 38.372 193.709,36.401 193.538,36.208 193.850 M362.403 193.798 C 361.492 194.090,361.511 194.111,362.717 194.147 C 363.481 194.170,363.902 194.029,363.760 193.798 C 363.628 193.585,363.487 193.428,363.446 193.449 C 363.405 193.471,362.936 193.628,362.403 193.798 M271.252 195.969 C 270.785 196.436,270.698 196.390,270.642 195.645 C 270.591 194.963,270.655 194.901,270.941 195.354 C 271.241 195.828,271.312 195.793,271.342 195.155 C 271.365 194.673,271.458 194.578,271.587 194.902 C 271.702 195.190,271.551 195.670,271.252 195.969 M81.014 227.810 C 81.010 228.290,81.182 228.682,81.395 228.682 C 81.881 228.682,81.881 228.271,81.395 227.519 C 81.092 227.049,81.018 227.105,81.014 227.810 M318.487 227.672 C 318.329 228.075,318.290 228.497,318.402 228.608 C 318.755 228.962,319.066 228.383,318.918 227.647 C 318.782 226.972,318.762 226.973,318.487 227.672 M87.505 231.669 C 87.987 231.762,88.684 231.759,89.055 231.662 C 89.425 231.565,89.031 231.489,88.178 231.493 C 87.326 231.497,87.022 231.577,87.505 231.669 M311.148 231.669 C 311.630 231.762,312.328 231.759,312.698 231.662 C 313.069 231.565,312.674 231.489,311.822 231.493 C 310.969 231.497,310.666 231.577,311.148 231.669 M292.247 243.798 C 292.246 244.563,281.368 244.678,281.113 243.916 C 280.938 243.397,282.881 243.217,288.662 243.217 C 291.591 243.217,292.247 243.324,292.247 243.798 M156.063 245.666 C 155.884 246.586,155.842 247.444,155.969 247.571 C 156.433 248.035,156.635 247.332,156.513 245.680 L 156.389 243.992 156.063 245.666 M243.501 246.512 C 243.501 247.258,243.581 247.563,243.678 247.190 C 243.776 246.817,243.776 246.206,243.678 245.833 C 243.581 245.460,243.501 245.766,243.501 246.512 M155.673 248.752 C 155.512 249.012,155.522 249.227,155.694 249.231 C 155.867 249.234,155.746 249.406,155.426 249.612 C 154.929 249.933,154.944 249.989,155.523 249.994 C 156.285 250.001,156.475 250.772,155.717 250.781 C 155.386 250.785,155.412 250.901,155.799 251.145 C 156.281 251.450,156.252 251.628,155.605 252.347 C 154.849 253.186,154.850 253.190,155.620 253.046 C 156.121 252.952,156.437 252.539,156.514 251.879 C 156.677 250.480,156.048 248.145,155.673 248.752 M243.411 251.163 C 243.411 252.016,243.550 252.713,243.720 252.713 C 243.891 252.713,244.022 252.016,244.011 251.164 C 244.001 250.312,243.861 249.614,243.702 249.614 C 243.542 249.613,243.411 250.310,243.411 251.163 M155.233 255.039 C 154.844 255.468,154.642 255.934,154.783 256.075 C 154.924 256.216,155.039 256.117,155.039 255.856 C 155.039 255.594,155.240 255.505,155.486 255.657 C 155.751 255.821,155.829 255.764,155.678 255.519 C 155.537 255.291,155.641 255.027,155.908 254.931 C 156.176 254.836,156.293 254.645,156.167 254.508 C 156.041 254.371,155.621 254.610,155.233 255.039 M243.798 254.584 C 243.798 254.834,243.983 255.039,244.209 255.039 C 244.435 255.039,244.495 255.240,244.343 255.486 C 244.179 255.751,244.236 255.829,244.481 255.678 C 244.709 255.537,244.973 255.641,245.069 255.908 C 245.164 256.176,245.353 256.294,245.488 256.171 C 245.623 256.047,245.298 255.537,244.766 255.037 C 244.234 254.537,243.798 254.333,243.798 254.584 M152.326 255.662 C 152.326 256.056,152.112 256.203,151.744 256.061 C 151.424 255.939,151.163 256.007,151.163 256.214 C 151.163 256.420,151.599 256.589,152.132 256.589 C 152.842 256.589,153.101 256.382,153.101 255.814 C 153.101 255.388,152.926 255.039,152.713 255.039 C 152.500 255.039,152.326 255.319,152.326 255.662 M146.407 255.661 C 145.831 256.237,146.156 256.589,147.264 256.589 C 147.891 256.589,148.527 256.389,148.678 256.145 C 148.871 255.834,148.655 255.776,147.958 255.951 C 147.382 256.095,146.906 256.027,146.826 255.789 C 146.751 255.563,146.562 255.505,146.407 255.661 M184.981 256.100 C 183.861 256.178,182.946 256.411,182.946 256.617 C 182.946 256.834,183.393 256.875,184.012 256.715 C 184.598 256.562,186.684 256.428,188.648 256.417 C 190.611 256.405,191.919 256.277,191.554 256.132 C 190.873 255.861,188.555 255.850,184.981 256.100 M208.354 256.141 C 207.627 256.447,207.630 256.467,208.432 256.677 C 208.890 256.796,209.328 256.705,209.406 256.472 C 209.506 256.171,210.587 256.163,213.203 256.446 C 216.631 256.818,217.414 256.814,217.022 256.431 C 216.678 256.095,209.068 255.840,208.354 256.141 M246.899 256.257 C 246.899 256.440,247.422 256.589,248.062 256.589 C 249.578 256.589,249.577 256.020,248.061 255.966 C 247.422 255.944,246.899 256.075,246.899 256.257 M199.128 256.482 C 199.821 256.568,200.954 256.568,201.647 256.482 C 202.340 256.396,201.773 256.326,200.388 256.326 C 199.002 256.326,198.435 256.396,199.128 256.482 M181.014 259.981 C 181.018 260.811,181.103 260.918,181.395 260.465 C 181.885 259.707,181.885 258.915,181.395 258.915 C 181.182 258.915,181.010 259.394,181.014 259.981 M218.223 259.399 C 218.237 260.506,218.980 261.072,218.986 259.981 C 218.990 259.394,218.818 258.915,218.605 258.915 C 218.391 258.915,218.220 259.133,218.223 259.399 M181.098 264.729 C 181.098 265.475,181.177 265.780,181.275 265.407 C 181.372 265.034,181.372 264.423,181.275 264.050 C 181.177 263.677,181.098 263.983,181.098 264.729 M218.476 264.826 C 218.812 266.592,218.992 266.648,218.992 264.987 C 218.992 264.205,218.822 263.566,218.614 263.566 C 218.397 263.566,218.338 264.102,218.476 264.826 M297.342 268.950 C 296.976 269.182,296.946 269.363,297.245 269.548 C 297.481 269.694,297.674 269.641,297.674 269.430 C 297.674 269.219,298.067 268.971,298.547 268.878 C 299.299 268.733,299.312 268.704,298.643 268.663 C 298.217 268.638,297.632 268.766,297.342 268.950 M302.866 268.883 C 303.466 269.036,303.501 269.140,303.060 269.449 C 302.603 269.768,302.605 269.803,303.077 269.676 C 304.039 269.416,304.007 268.601,303.036 268.650 C 302.294 268.687,302.263 268.728,302.866 268.883 M305.523 272.605 C 306.319 273.241,306.399 273.887,305.717 274.162 C 305.334 274.316,305.336 274.364,305.724 274.388 C 306.050 274.408,306.145 274.779,306.006 275.484 C 305.797 276.546,305.798 276.547,306.211 275.595 C 306.853 274.116,306.541 272.315,305.620 272.178 C 304.893 272.069,304.887 272.096,305.523 272.605 M93.411 273.837 C 93.411 274.583,93.479 275.194,93.562 275.194 C 93.646 275.194,93.785 274.583,93.872 273.837 C 93.959 273.091,93.891 272.481,93.721 272.481 C 93.550 272.481,93.411 273.091,93.411 273.837 M305.853 278.391 C 305.944 280.466,306.511 281.252,306.551 279.360 C 306.572 278.348,306.415 277.519,306.202 277.519 C 305.988 277.519,305.831 277.912,305.853 278.391 M143.669 282.655 C 143.470 283.444,143.497 283.463,143.953 282.855 C 144.230 282.485,144.598 282.311,144.771 282.467 C 144.944 282.624,144.960 282.534,144.807 282.267 C 144.381 281.528,143.913 281.687,143.669 282.655 M142.248 289.159 C 142.248 289.366,142.433 289.535,142.659 289.535 C 142.884 289.535,142.945 289.736,142.792 289.982 C 142.621 290.260,142.686 290.325,142.963 290.153 C 143.581 289.771,143.523 289.273,142.829 289.007 C 142.510 288.884,142.248 288.953,142.248 289.159 M142.850 291.051 C 142.707 291.283,142.785 291.473,143.023 291.473 C 143.262 291.473,143.334 291.691,143.183 291.957 C 142.964 292.345,143.014 292.345,143.432 291.957 C 143.807 291.608,143.836 291.355,143.532 291.051 C 143.229 290.748,143.038 290.748,142.850 291.051 M141.462 292.068 C 141.194 292.390,141.087 292.766,141.224 292.903 C 141.361 293.040,141.473 292.939,141.473 292.677 C 141.473 292.416,141.635 292.303,141.834 292.425 C 142.032 292.548,142.297 292.483,142.421 292.281 C 142.816 291.643,141.970 291.455,141.462 292.068 M138.910 292.747 C 139.065 293.227,138.868 293.548,138.269 293.789 C 137.637 294.043,137.580 294.144,138.059 294.161 C 138.419 294.175,138.838 294.387,138.991 294.634 C 139.162 294.911,139.097 294.976,138.820 294.804 C 138.573 294.652,138.372 294.702,138.372 294.915 C 138.372 295.676,139.096 295.734,139.331 294.992 C 139.463 294.576,139.868 294.158,140.231 294.062 C 140.668 293.947,140.571 293.873,139.945 293.843 C 139.023 293.800,139.018 293.783,139.752 293.188 C 140.165 292.853,140.266 292.701,139.976 292.850 C 139.686 293.000,139.277 292.882,139.067 292.588 C 138.775 292.178,138.739 292.215,138.910 292.747 M143.023 293.040 C 143.023 293.263,142.805 293.417,142.539 293.382 C 141.318 293.223,140.860 293.402,141.473 293.798 C 141.802 294.011,141.859 294.177,141.604 294.180 C 141.118 294.187,141.131 295.136,141.623 295.628 C 141.789 295.794,141.867 295.675,141.796 295.363 C 141.725 295.051,142.059 294.617,142.539 294.399 C 143.272 294.065,143.822 292.636,143.217 292.636 C 143.110 292.636,143.023 292.818,143.023 293.040 M133.550 295.085 C 133.424 294.833,133.502 294.515,133.723 294.379 C 133.972 294.225,134.092 294.562,134.039 295.264 C 133.956 296.354,132.374 296.981,132.358 295.930 C 132.355 295.717,132.197 295.298,132.008 294.998 C 131.771 294.624,131.803 294.540,132.111 294.730 C 132.358 294.883,132.558 294.790,132.558 294.522 C 132.558 294.248,132.823 294.364,133.168 294.790 C 133.504 295.204,133.675 295.337,133.550 295.085 M267.863 294.747 C 268.058 294.626,268.217 294.619,268.217 294.731 C 268.217 294.843,267.885 295.111,267.480 295.328 C 266.839 295.671,266.772 295.611,266.966 294.868 C 267.089 294.397,267.262 294.227,267.349 294.489 C 267.437 294.751,267.668 294.867,267.863 294.747 M131.979 297.670 C 131.837 297.900,132.022 297.949,132.441 297.791 C 133.078 297.552,133.089 297.595,132.558 298.280 C 132.033 298.959,132.036 298.985,132.594 298.550 C 132.933 298.285,133.335 298.193,133.486 298.344 C 133.638 298.496,133.647 298.320,133.506 297.953 C 133.226 297.224,132.355 297.062,131.979 297.670 M137.384 299.644 C 137.374 300.511,137.494 300.947,137.669 300.671 C 138.057 300.060,138.073 298.550,137.694 298.317 C 137.534 298.219,137.395 298.817,137.384 299.644 M87.597 306.140 C 87.597 306.320,88.382 306.478,89.341 306.493 C 90.300 306.507,91.085 306.360,91.085 306.167 C 91.085 305.973,90.300 305.814,89.341 305.814 C 88.382 305.814,87.597 305.961,87.597 306.140 M308.915 306.202 C 308.915 306.415,309.700 306.589,310.659 306.589 C 311.618 306.589,312.403 306.415,312.403 306.202 C 312.403 305.988,311.618 305.814,310.659 305.814 C 309.700 305.814,308.915 305.988,308.915 306.202 M81.014 309.787 C 81.018 310.492,81.092 310.548,81.395 310.078 C 81.881 309.326,81.881 308.915,81.395 308.915 C 81.182 308.915,81.010 309.307,81.014 309.787 M318.087 309.205 C 317.990 309.365,318.154 309.721,318.452 309.996 C 318.901 310.411,318.992 310.362,318.992 309.705 C 318.992 308.933,318.437 308.627,318.087 309.205 M181.008 323.643 C 181.008 324.496,181.182 325.194,181.395 325.194 C 181.609 325.194,181.783 324.496,181.783 323.643 C 181.783 322.791,181.609 322.093,181.395 322.093 C 181.182 322.093,181.008 322.791,181.008 323.643 M218.217 323.643 C 218.217 324.496,218.391 325.194,218.605 325.194 C 218.818 325.194,218.992 324.496,218.992 323.643 C 218.992 322.791,218.818 322.093,218.605 322.093 C 218.391 322.093,218.217 322.791,218.217 323.643 M74.516 343.678 C 74.889 343.776,75.499 343.776,75.872 343.678 C 76.245 343.581,75.940 343.501,75.194 343.501 C 74.448 343.501,74.142 343.581,74.516 343.678 M255.871 348.643 C 255.873 351.296,255.884 351.326,256.368 350.000 C 256.685 349.134,256.726 348.554,256.483 348.396 C 256.274 348.260,256.190 347.998,256.297 347.815 C 256.404 347.631,256.352 347.132,256.180 346.705 C 255.979 346.205,255.869 346.892,255.871 348.643 M68.217 351.550 C 68.217 352.403,68.381 353.101,68.580 353.101 C 68.780 353.101,68.934 352.403,68.922 351.550 C 68.910 350.698,68.747 350.000,68.559 350.000 C 68.371 350.000,68.217 350.698,68.217 351.550 M331.008 351.357 C 331.008 352.103,331.182 352.713,331.395 352.713 C 331.609 352.713,331.783 352.103,331.783 351.357 C 331.783 350.610,331.609 350.000,331.395 350.000 C 331.182 350.000,331.008 350.610,331.008 351.357 M256.202 353.876 C 256.202 354.713,257.144 354.934,257.595 354.204 C 257.760 353.937,257.702 353.861,257.451 354.016 C 257.220 354.159,256.929 354.112,256.805 353.912 C 256.681 353.711,256.887 353.467,257.263 353.369 C 257.782 353.233,257.737 353.180,257.074 353.146 C 256.445 353.113,256.202 353.317,256.202 353.876 M256.721 355.526 C 256.374 356.088,257.816 356.304,258.350 355.770 C 258.808 355.312,258.741 355.233,257.895 355.233 C 257.349 355.233,256.821 355.365,256.721 355.526 M259.847 355.366 C 260.011 355.632,259.877 355.814,259.519 355.814 C 259.187 355.814,258.915 355.988,258.915 356.202 C 258.915 356.844,261.518 356.660,261.772 355.999 C 261.954 355.522,261.855 355.485,261.257 355.805 C 260.335 356.298,259.964 356.312,260.255 355.841 C 260.377 355.642,260.274 355.354,260.024 355.199 C 259.741 355.024,259.674 355.087,259.847 355.366 M263.360 356.220 C 263.229 356.433,263.872 356.589,264.877 356.589 C 267.145 356.589,267.486 356.031,265.281 355.930 C 264.350 355.887,263.486 356.018,263.360 356.220 " stroke="none" fill="#000000" fill-rule="evenodd"></path><path id="path1" d="M181.270 0.255 C 180.952 0.573,181.003 9.304,181.344 12.765 L 181.589 15.258 187.786 15.183 L 193.982 15.109 200.280 12.758 C 205.340 10.870,206.979 10.420,208.619 10.470 C 209.741 10.504,212.539 10.516,214.837 10.498 L 219.015 10.465 218.907 5.329 L 218.798 0.194 200.165 0.093 C 189.917 0.038,181.414 0.111,181.270 0.255 M172.136 31.369 C 171.852 31.544,171.289 31.602,170.885 31.496 C 169.988 31.261,168.937 32.065,169.038 32.908 C 169.078 33.249,168.982 33.824,168.824 34.187 C 168.665 34.550,168.613 35.989,168.707 37.385 C 168.802 38.780,168.730 39.922,168.548 39.922 C 168.366 39.922,168.217 42.975,168.217 46.705 C 168.217 50.969,168.361 53.488,168.605 53.488 C 168.818 53.488,169.015 54.230,169.043 55.136 L 169.094 56.783 169.380 55.426 C 169.537 54.680,169.688 54.385,169.716 54.771 C 169.744 55.157,169.942 55.364,170.155 55.233 C 170.368 55.101,170.543 55.134,170.543 55.307 C 170.544 55.565,175.545 55.647,180.354 55.467 C 181.652 55.419,183.057 52.691,184.697 47.032 L 185.677 43.650 184.930 40.721 C 184.029 37.187,182.835 33.969,181.798 32.277 L 181.031 31.027 176.842 31.038 C 174.537 31.045,172.420 31.193,172.136 31.369 M218.246 32.685 C 215.448 39.212,215.126 44.343,217.297 47.813 L 218.697 50.052 224.853 49.929 L 231.008 49.806 231.008 51.066 C 231.008 51.759,231.182 52.326,231.395 52.326 C 231.638 52.326,231.783 50.000,231.783 46.124 C 231.783 42.083,231.642 39.922,231.379 39.922 C 231.112 39.922,231.063 38.954,231.234 37.068 C 231.406 35.174,231.352 34.127,231.073 33.955 C 230.843 33.813,230.753 33.438,230.874 33.122 C 231.193 32.291,230.294 31.394,229.117 31.370 C 228.558 31.359,226.046 31.271,223.534 31.175 L 218.968 31.000 218.246 32.685 M164.243 68.444 C 164.099 68.589,162.913 68.682,161.609 68.653 C 160.304 68.623,159.034 68.725,158.786 68.878 C 158.537 69.032,157.999 69.164,157.588 69.172 C 156.340 69.196,156.142 70.945,156.007 83.140 C 155.936 89.535,156.012 93.983,156.175 93.023 L 156.473 91.279 156.537 92.829 C 156.582 93.924,156.704 94.216,156.953 93.824 C 157.231 93.384,158.502 93.263,163.049 93.242 L 168.793 93.217 169.814 91.328 C 173.896 83.780,173.783 76.464,169.486 70.052 C 168.410 68.447,165.219 67.468,164.243 68.444 M231.475 68.703 C 230.756 69.569,229.569 72.970,228.513 77.190 L 227.480 81.318 228.678 84.425 C 230.694 89.652,230.509 89.536,236.766 89.511 C 239.690 89.499,242.338 89.329,242.650 89.134 C 243.117 88.842,243.298 89.306,243.677 91.773 C 244.074 94.364,244.116 93.253,243.989 83.527 C 243.826 71.115,243.620 69.209,242.434 69.145 C 242.012 69.122,241.354 68.970,240.971 68.806 C 240.588 68.642,239.237 68.626,237.967 68.770 C 236.448 68.941,235.659 68.892,235.659 68.624 C 235.659 68.045,231.963 68.115,231.475 68.703 M199.435 83.480 L 193.638 85.465 192.362 88.073 C 189.826 93.258,189.945 96.233,193.013 104.360 L 193.854 106.589 199.944 106.589 L 206.034 106.589 206.796 105.329 C 207.999 103.341,209.265 100.067,210.114 96.750 L 210.896 93.693 210.077 90.936 C 208.245 84.771,206.662 81.341,205.695 81.445 C 205.441 81.472,202.624 82.388,199.435 83.480 M148.837 118.853 C 148.837 118.989,149.142 119.347,149.516 119.649 C 150.124 120.142,150.102 120.153,149.297 119.762 C 148.608 119.427,148.255 119.444,147.771 119.837 C 147.236 120.272,147.176 120.257,147.371 119.735 C 147.547 119.263,147.340 119.121,146.475 119.121 C 145.855 119.121,145.349 119.327,145.349 119.578 C 145.349 119.829,145.005 120.346,144.584 120.727 C 143.823 121.416,143.722 123.578,144.372 125.241 C 144.508 125.586,144.369 126.118,144.064 126.423 C 143.654 126.834,143.581 127.444,143.784 128.782 C 143.989 130.129,143.927 130.637,143.540 130.785 C 143.255 130.895,113.371 131.001,77.131 131.021 C 40.891 131.041,11.240 131.201,11.240 131.375 C 11.240 131.873,9.346 132.108,9.186 131.630 C 8.889 130.739,6.773 131.927,6.884 132.921 C 6.940 133.418,6.806 134.041,6.586 134.306 C 6.358 134.580,6.117 137.775,6.026 141.716 C 5.938 145.526,5.949 148.201,6.051 147.661 L 6.237 146.679 75.115 146.569 L 143.992 146.458 145.349 145.378 L 146.705 144.298 147.142 138.719 C 147.382 135.650,147.600 133.102,147.626 133.056 C 147.912 132.563,149.724 132.143,152.384 131.954 C 154.164 131.827,155.862 131.646,156.158 131.551 C 156.679 131.384,156.674 130.261,156.099 119.460 C 156.083 119.164,155.821 119.057,155.459 119.198 C 154.390 119.615,154.067 119.587,154.167 119.089 C 154.288 118.481,153.437 118.468,152.140 119.059 C 151.376 119.407,151.035 119.407,150.687 119.059 C 150.209 118.581,148.837 118.428,148.837 118.853 M146.415 120.771 C 146.415 121.366,146.296 121.597,146.129 121.326 C 145.972 121.072,145.732 120.879,145.596 120.897 C 145.460 120.915,145.392 120.799,145.446 120.640 C 145.499 120.480,145.695 120.400,145.881 120.462 C 146.067 120.524,146.113 120.297,145.982 119.957 C 145.852 119.617,145.896 119.433,146.080 119.546 C 146.264 119.660,146.415 120.211,146.415 120.771 M206.030 130.620 C 206.190 140.914,206.434 143.192,207.381 143.255 C 207.692 143.275,208.207 143.392,208.527 143.515 C 209.555 143.908,215.710 144.224,217.324 143.966 C 218.874 143.718,218.895 143.692,219.896 140.753 C 222.788 132.265,222.816 131.108,220.250 125.969 L 218.798 123.062 212.984 123.076 C 209.394 123.085,207.062 122.937,206.886 122.689 C 206.729 122.468,206.571 122.810,206.534 123.450 C 206.487 124.278,206.382 124.055,206.172 122.674 C 206.009 121.609,205.945 125.184,206.030 130.620 M193.603 125.388 C 193.415 127.306,193.196 128.481,193.115 127.998 C 193.034 127.515,192.796 127.227,192.585 127.357 C 192.374 127.487,189.704 127.570,186.651 127.541 L 181.100 127.488 180.028 129.318 L 178.955 131.147 179.803 136.240 C 180.980 143.317,181.043 143.504,182.386 143.882 C 183.561 144.213,190.975 143.883,191.667 143.470 C 191.880 143.342,192.312 143.233,192.628 143.227 C 193.312 143.215,193.926 140.251,193.324 139.873 C 193.086 139.723,193.126 139.565,193.428 139.465 C 193.797 139.342,193.966 137.309,194.102 131.375 C 194.305 122.486,194.112 120.170,193.603 125.388 M255.718 131.675 C 254.431 133.097,253.933 135.140,253.613 140.321 L 253.385 144.015 254.807 145.263 L 256.229 146.512 318.715 146.576 C 353.083 146.612,384.025 146.616,387.475 146.587 L 393.749 146.532 393.942 147.588 C 394.048 148.168,394.062 145.526,393.974 141.716 C 393.883 137.775,393.642 134.580,393.414 134.306 C 393.194 134.041,393.060 133.418,393.116 132.921 C 393.227 131.927,391.111 130.739,390.814 131.630 C 390.654 132.108,388.760 131.873,388.760 131.375 C 388.760 130.630,256.393 130.929,255.718 131.675 M34.884 178.377 C 31.572 179.112,30.992 180.282,31.194 185.817 C 31.288 188.395,31.371 190.961,31.378 191.520 C 31.392 192.614,32.285 193.625,32.902 193.244 C 33.110 193.116,33.389 193.187,33.522 193.402 C 33.779 193.818,36.007 193.949,41.667 193.878 C 45.783 193.827,47.787 193.519,47.459 192.988 C 47.328 192.777,47.241 190.050,47.265 186.929 L 47.309 181.253 45.667 179.580 L 44.025 177.907 40.326 177.948 C 38.292 177.971,35.843 178.164,34.884 178.377 M354.669 180.078 L 353.443 181.474 353.553 187.291 L 353.663 193.109 354.641 193.484 C 356.290 194.117,366.079 194.049,366.478 193.402 C 366.611 193.187,366.890 193.116,367.098 193.244 C 367.714 193.625,368.608 192.614,368.624 191.520 C 368.631 190.961,368.708 188.600,368.794 186.273 C 369.013 180.362,368.617 179.887,362.826 179.116 C 357.087 178.352,356.080 178.471,354.669 180.078 M103.029 187.490 L 103.175 193.992 104.573 195.446 C 107.140 198.114,117.325 196.996,118.532 193.914 C 119.015 192.681,119.095 184.993,118.628 184.704 C 118.459 184.600,118.410 184.048,118.519 183.479 C 118.655 182.768,118.579 182.528,118.278 182.714 C 117.986 182.895,117.924 182.762,118.095 182.317 C 118.294 181.799,118.201 181.706,117.683 181.905 C 117.272 182.063,117.109 182.009,117.260 181.764 C 117.409 181.523,116.997 181.366,116.214 181.364 C 115.504 181.362,112.213 181.276,108.902 181.174 L 102.883 180.987 103.029 187.490 M285.460 181.336 C 285.341 181.455,284.625 181.510,283.869 181.459 C 283.009 181.401,282.587 181.516,282.740 181.764 C 282.891 182.009,282.728 182.063,282.317 181.905 C 281.799 181.706,281.706 181.799,281.905 182.317 C 282.061 182.723,282.008 182.891,281.770 182.744 C 281.543 182.603,281.375 182.960,281.369 183.596 C 281.364 184.198,281.284 186.601,281.191 188.937 C 280.882 196.665,281.274 197.115,288.663 197.509 L 293.800 197.784 295.770 195.814 L 297.740 193.843 297.548 187.522 C 297.443 184.046,297.341 181.159,297.322 181.106 C 297.248 180.907,285.666 181.130,285.460 181.336 M272.610 194.343 C 272.610 194.667,272.845 194.797,273.190 194.665 C 273.599 194.508,273.677 194.594,273.453 194.955 C 273.247 195.290,273.286 195.376,273.567 195.203 C 274.101 194.872,273.732 193.798,273.085 193.798 C 272.824 193.798,272.610 194.043,272.610 194.343 M271.342 195.155 C 271.312 195.793,271.241 195.828,270.941 195.354 C 270.655 194.901,270.591 194.963,270.642 195.645 C 270.698 196.390,270.785 196.436,271.252 195.969 C 271.551 195.670,271.702 195.190,271.587 194.902 C 271.458 194.578,271.365 194.673,271.342 195.155 M269.283 198.214 C 268.416 198.872,268.404 200.000,269.264 200.000 C 269.772 200.000,269.817 199.895,269.463 199.540 C 269.108 199.185,269.148 198.920,269.639 198.377 C 270.384 197.554,270.239 197.488,269.283 198.214 M68.605 213.243 C 68.605 213.705,68.654 214.010,68.714 213.921 C 68.775 213.832,69.058 213.454,69.343 213.081 C 69.788 212.501,69.772 212.403,69.234 212.403 C 68.847 212.403,68.605 212.727,68.605 213.243 M88.566 215.528 C 80.631 215.922,80.827 215.561,81.424 228.666 C 81.448 229.190,81.756 229.857,82.110 230.148 C 82.463 230.439,82.507 230.551,82.208 230.395 C 81.863 230.216,81.759 230.268,81.924 230.536 C 82.068 230.768,82.488 230.961,82.856 230.964 C 83.225 230.967,84.225 231.060,85.078 231.171 C 88.325 231.592,97.872 231.797,97.093 231.429 C 96.562 231.178,96.501 231.054,96.899 231.036 C 97.395 231.013,97.464 230.116,97.364 224.914 C 97.193 215.971,96.412 215.138,88.566 215.528 M304.723 217.539 L 303.439 218.886 303.524 225.018 C 303.603 230.721,303.557 231.172,302.870 231.472 C 302.129 231.796,312.002 231.550,314.922 231.171 C 315.775 231.060,316.775 230.967,317.144 230.964 C 317.512 230.961,317.932 230.768,318.076 230.536 C 318.241 230.268,318.137 230.216,317.792 230.395 C 317.493 230.551,317.537 230.439,317.890 230.148 C 318.244 229.857,318.552 229.190,318.576 228.666 C 319.120 216.686,319.302 216.949,310.078 216.424 L 306.008 216.193 304.723 217.539 M73.744 217.697 C 73.120 217.949,74.091 218.992,74.949 218.992 C 75.687 218.992,76.111 218.351,75.588 218.027 C 75.371 217.893,75.194 217.983,75.194 218.226 C 75.194 218.470,74.976 218.589,74.709 218.492 C 74.443 218.394,74.268 218.118,74.322 217.878 C 74.375 217.638,74.375 217.456,74.322 217.472 C 74.268 217.489,74.008 217.591,73.744 217.697 M105.924 243.798 C 105.924 247.245,106.031 248.819,106.202 247.868 L 106.479 246.318 106.540 247.674 C 106.574 248.421,106.729 248.832,106.886 248.590 C 107.077 248.294,109.084 248.140,112.976 248.124 C 119.401 248.098,119.036 248.236,120.592 245.230 L 121.356 243.754 120.239 241.935 L 119.122 240.116 113.243 240.009 C 108.681 239.926,107.363 240.013,107.358 240.397 C 107.354 240.740,107.237 240.713,106.977 240.310 C 106.663 239.825,106.591 239.857,106.540 240.504 C 106.507 240.930,106.354 240.581,106.202 239.729 C 106.031 238.778,105.924 240.352,105.924 243.798 M243.504 243.895 C 243.554 247.040,243.685 249.612,243.794 249.612 C 243.903 249.612,243.962 250.610,243.925 251.829 C 243.888 253.048,243.972 254.225,244.113 254.445 C 244.253 254.665,244.371 255.019,244.374 255.233 C 244.377 255.446,244.554 255.623,244.767 255.626 C 244.981 255.629,245.331 255.744,245.545 255.881 C 245.760 256.018,246.675 256.093,247.580 256.047 C 248.485 256.000,249.225 256.104,249.225 256.276 C 249.225 256.448,249.748 256.589,250.388 256.589 C 251.027 256.589,251.550 256.419,251.550 256.211 C 251.550 255.966,251.899 255.966,252.545 256.211 C 255.148 257.201,256.213 256.609,256.744 253.876 C 258.369 245.508,258.524 243.761,257.767 242.277 C 256.526 239.846,256.352 239.789,250.271 239.846 C 245.018 239.896,244.737 239.859,244.090 239.038 C 243.439 238.211,243.417 238.393,243.504 243.895 M293.630 241.957 C 293.498 243.716,293.549 246.027,293.743 247.093 C 294.040 248.727,294.102 248.226,294.140 243.895 C 294.192 238.058,293.980 237.254,293.630 241.957 M155.859 241.786 C 155.834 242.279,155.640 242.574,155.426 242.442 C 155.213 242.310,155.039 242.350,155.039 242.530 C 155.039 242.710,152.543 242.793,149.493 242.714 C 142.447 242.531,142.890 242.037,143.392 249.514 C 143.878 256.756,144.576 258.260,146.360 255.911 C 146.683 255.485,146.879 255.415,146.887 255.724 C 146.895 256.062,147.222 256.135,147.926 255.959 C 148.649 255.777,148.872 255.832,148.678 256.145 C 148.492 256.447,148.845 256.589,149.783 256.589 C 150.542 256.589,151.163 256.420,151.163 256.214 C 151.163 256.007,151.424 255.939,151.744 256.061 C 152.112 256.203,152.326 256.056,152.326 255.662 C 152.326 255.319,152.500 255.039,152.713 255.039 C 152.926 255.039,153.101 255.300,153.101 255.620 C 153.101 256.415,154.247 256.354,154.928 255.523 C 155.234 255.150,155.357 255.090,155.201 255.389 C 155.014 255.750,155.072 255.839,155.373 255.653 C 155.622 255.499,155.734 255.222,155.620 255.039 C 155.507 254.855,155.591 254.595,155.808 254.461 C 156.438 254.071,156.262 253.101,155.560 253.101 C 154.993 253.101,155.005 253.004,155.657 252.269 C 156.184 251.675,156.258 251.389,155.914 251.269 C 155.552 251.142,155.576 250.958,156.011 250.523 C 156.705 249.829,156.780 247.803,156.120 247.583 C 155.764 247.464,155.750 246.996,156.062 245.631 C 156.288 244.643,156.345 243.173,156.188 242.363 C 156.016 241.476,155.885 241.247,155.859 241.786 M283.017 243.335 C 281.631 243.415,281.008 243.605,281.113 243.916 C 281.368 244.678,292.246 244.563,292.247 243.798 C 292.247 243.207,288.516 243.020,283.017 243.335 M156.202 249.225 C 156.202 249.707,155.945 249.998,155.523 249.994 C 154.944 249.989,154.929 249.933,155.426 249.612 C 155.746 249.406,155.867 249.234,155.694 249.231 C 155.522 249.227,155.488 249.050,155.620 248.837 C 155.992 248.236,156.202 248.376,156.202 249.225 M191.663 256.170 C 192.129 256.352,191.285 256.459,189.531 256.441 C 185.348 256.398,182.150 256.697,181.862 257.158 C 181.423 257.860,180.978 266.045,181.279 267.904 C 181.674 270.355,189.780 271.369,201.240 270.401 C 220.948 268.737,219.507 269.158,218.617 265.320 C 218.375 264.277,218.393 263.697,218.673 263.523 C 218.926 263.367,218.989 262.684,218.835 261.769 C 218.696 260.945,218.539 259.627,218.487 258.840 C 218.376 257.186,218.088 256.799,216.925 256.740 C 216.463 256.717,214.559 256.562,212.694 256.396 C 210.404 256.193,209.302 256.226,209.302 256.500 C 209.302 256.725,208.926 256.806,208.451 256.682 C 207.638 256.469,207.634 256.445,208.354 256.164 C 208.769 256.001,205.010 255.868,200.000 255.868 C 194.990 255.868,191.239 256.004,191.663 256.170 M201.647 256.482 C 200.954 256.568,199.821 256.568,199.128 256.482 C 198.435 256.396,199.002 256.326,200.388 256.326 C 201.773 256.326,202.340 256.396,201.647 256.482 M97.093 268.982 C 96.667 269.142,96.098 269.190,95.828 269.089 C 95.243 268.869,94.112 269.721,94.390 270.172 C 94.498 270.346,94.407 270.600,94.188 270.735 C 93.969 270.870,93.800 271.449,93.811 272.022 C 93.823 272.594,93.724 275.983,93.592 279.552 C 93.384 285.159,93.435 286.126,93.963 286.654 C 94.299 286.990,94.574 287.078,94.574 286.849 C 94.574 286.573,96.510 286.434,100.383 286.434 L 106.192 286.434 107.093 284.981 C 109.002 281.900,109.018 281.685,107.783 275.707 C 106.240 268.243,106.674 268.755,101.866 268.721 C 99.667 268.704,97.519 268.822,97.093 268.982 M293.975 269.341 C 293.363 270.865,292.895 281.356,293.411 281.978 C 293.836 282.489,294.835 282.584,299.383 282.547 C 302.387 282.522,305.063 282.515,305.329 282.530 C 305.596 282.546,305.834 282.951,305.859 283.430 C 305.884 283.926,306.026 283.668,306.188 282.830 C 306.345 282.021,306.288 280.550,306.062 279.563 C 305.750 278.198,305.764 277.730,306.120 277.611 C 306.794 277.386,306.698 275.358,305.980 274.640 C 305.645 274.305,305.558 274.031,305.786 274.031 C 306.431 274.031,306.276 273.204,305.523 272.633 C 304.877 272.142,304.877 272.117,305.523 272.105 C 306.254 272.092,306.453 271.132,305.808 270.733 C 305.591 270.599,305.502 270.346,305.610 270.172 C 306.024 269.502,304.633 268.817,303.850 269.306 C 303.444 269.560,302.978 269.765,302.815 269.762 C 302.653 269.758,302.769 269.598,303.074 269.405 C 303.855 268.910,301.788 268.638,297.597 268.684 C 294.891 268.714,294.175 268.843,293.975 269.341 M143.671 278.776 C 143.394 281.026,143.260 281.347,142.702 281.083 C 142.346 280.915,139.612 280.785,136.628 280.795 L 131.202 280.814 131.077 283.915 C 130.849 289.583,131.331 293.472,132.205 293.005 C 132.785 292.695,132.946 292.738,132.946 293.203 C 132.946 293.943,135.500 294.043,135.781 293.314 C 135.884 293.047,135.927 293.309,135.877 293.896 C 135.828 294.483,135.643 295.093,135.467 295.253 C 135.291 295.412,135.265 295.337,135.409 295.085 C 135.554 294.833,135.514 294.530,135.322 294.411 C 135.018 294.224,134.517 295.192,134.354 296.279 C 134.265 296.875,132.631 296.917,132.051 296.337 C 131.576 295.861,131.512 295.993,131.586 297.302 C 131.674 298.848,132.392 300.149,132.963 299.796 C 133.137 299.688,133.406 299.804,133.560 300.054 C 133.729 300.326,133.673 300.404,133.421 300.248 C 133.179 300.098,132.930 300.360,132.832 300.866 C 132.670 301.710,132.662 301.712,132.611 300.914 C 132.582 300.457,132.292 299.981,131.968 299.856 C 131.481 299.670,131.452 299.769,131.802 300.424 C 132.088 300.958,132.105 301.567,131.856 302.283 C 131.595 303.033,131.634 303.705,131.989 304.549 C 132.266 305.209,132.392 305.851,132.267 305.975 C 132.143 306.100,132.232 306.202,132.465 306.202 C 132.698 306.202,132.969 305.896,133.066 305.523 C 133.216 304.948,133.250 304.941,133.288 305.478 C 133.322 305.945,133.764 306.128,134.981 306.177 C 136.790 306.250,142.544 306.291,143.314 306.236 C 143.660 306.211,143.798 305.279,143.798 302.972 C 143.798 301.195,143.929 299.611,144.089 299.451 C 144.249 299.291,144.402 299.000,144.428 298.805 C 144.546 297.941,144.607 297.901,144.961 298.450 C 145.212 298.837,145.339 298.870,145.343 298.547 C 145.347 298.181,146.738 298.062,150.987 298.062 L 156.626 298.062 158.546 296.142 L 160.465 294.223 160.465 288.068 C 160.465 280.454,160.966 280.924,153.101 281.162 C 145.361 281.395,144.741 281.471,144.897 282.171 C 144.968 282.490,144.898 282.624,144.741 282.467 C 144.585 282.311,144.224 282.485,143.939 282.855 C 143.494 283.432,143.478 283.357,143.824 282.319 C 144.045 281.655,144.173 279.998,144.109 278.637 L 143.992 276.163 143.671 278.776 M255.971 279.651 C 256.027 281.570,255.999 282.920,255.910 282.653 C 255.821 282.385,255.561 282.281,255.333 282.422 C 255.092 282.571,255.032 282.496,255.189 282.242 C 255.632 281.524,254.695 281.404,246.791 281.169 C 239.566 280.955,240.089 280.413,240.231 287.970 L 240.346 294.060 242.052 295.734 L 243.758 297.409 248.435 296.979 C 253.626 296.502,254.835 296.086,255.993 294.379 C 256.510 293.618,257.051 293.255,257.558 293.331 C 257.984 293.395,259.249 293.543,260.368 293.660 C 261.487 293.777,262.403 294.019,262.403 294.196 C 262.403 294.374,262.969 294.357,263.660 294.159 C 264.352 293.961,265.737 293.798,266.738 293.798 C 269.003 293.798,268.768 294.283,269.991 287.093 L 271.021 281.039 269.910 279.280 L 268.798 277.521 263.275 277.520 C 260.237 277.520,257.641 277.534,257.505 277.552 C 257.369 277.571,257.110 277.353,256.929 277.068 C 256.710 276.722,256.581 277.001,256.540 277.907 L 256.479 279.264 256.175 277.713 C 255.955 276.594,255.898 277.132,255.971 279.651 M143.411 289.553 C 143.411 289.731,143.209 290.001,142.963 290.153 C 142.686 290.325,142.621 290.260,142.792 289.982 C 142.945 289.736,142.884 289.535,142.659 289.535 C 142.433 289.535,142.248 289.366,142.248 289.159 C 142.248 288.953,142.510 288.884,142.829 289.007 C 143.149 289.130,143.411 289.376,143.411 289.553 M143.432 291.957 C 143.014 292.345,142.964 292.345,143.183 291.957 C 143.334 291.691,143.262 291.473,143.023 291.473 C 142.785 291.473,142.707 291.283,142.850 291.051 C 143.038 290.748,143.229 290.748,143.532 291.051 C 143.836 291.355,143.807 291.608,143.432 291.957 M142.421 292.281 C 142.297 292.483,142.032 292.548,141.834 292.425 C 141.635 292.303,141.473 292.416,141.473 292.677 C 141.473 292.939,141.361 293.040,141.224 292.903 C 140.874 292.554,141.872 291.434,142.298 291.698 C 142.491 291.817,142.546 292.079,142.421 292.281 M139.976 292.850 C 140.266 292.701,140.165 292.853,139.752 293.188 C 139.018 293.783,139.023 293.800,139.945 293.843 C 140.571 293.873,140.668 293.947,140.231 294.062 C 139.868 294.158,139.463 294.576,139.331 294.992 C 139.096 295.734,138.372 295.676,138.372 294.915 C 138.372 294.702,138.573 294.652,138.820 294.804 C 139.097 294.976,139.162 294.911,138.991 294.634 C 138.838 294.387,138.419 294.175,138.059 294.161 C 137.580 294.144,137.637 294.043,138.269 293.789 C 138.868 293.548,139.065 293.227,138.910 292.747 C 138.739 292.215,138.775 292.178,139.067 292.588 C 139.277 292.882,139.686 293.000,139.976 292.850 M143.411 293.319 C 143.411 293.695,143.018 294.181,142.539 294.399 C 142.059 294.617,141.725 295.051,141.796 295.363 C 141.867 295.675,141.789 295.794,141.623 295.628 C 141.131 295.136,141.118 294.187,141.604 294.180 C 141.859 294.177,141.802 294.011,141.473 293.798 C 140.860 293.402,141.318 293.223,142.539 293.382 C 142.805 293.417,143.023 293.263,143.023 293.040 C 143.023 292.818,143.110 292.636,143.217 292.636 C 143.324 292.636,143.411 292.943,143.411 293.319 M132.558 294.522 C 132.558 294.790,132.358 294.883,132.111 294.730 C 131.803 294.540,131.771 294.624,132.008 294.998 C 132.197 295.298,132.355 295.717,132.358 295.930 C 132.374 296.981,133.956 296.354,134.039 295.264 C 134.092 294.562,133.972 294.225,133.723 294.379 C 133.502 294.515,133.424 294.833,133.550 295.085 C 133.675 295.337,133.504 295.204,133.168 294.790 C 132.823 294.364,132.558 294.248,132.558 294.522 M266.966 294.868 C 266.772 295.611,266.839 295.671,267.480 295.328 C 267.885 295.111,268.217 294.843,268.217 294.731 C 268.217 294.619,268.058 294.626,267.863 294.747 C 267.668 294.867,267.437 294.751,267.349 294.489 C 267.262 294.227,267.089 294.397,266.966 294.868 M133.506 297.953 C 133.647 298.320,133.638 298.496,133.486 298.344 C 133.335 298.193,132.933 298.285,132.594 298.550 C 132.036 298.985,132.033 298.959,132.558 298.280 C 133.089 297.595,133.078 297.552,132.441 297.791 C 132.022 297.949,131.837 297.900,131.979 297.670 C 132.355 297.062,133.226 297.224,133.506 297.953 M137.979 299.345 C 137.975 299.812,137.836 300.409,137.669 300.671 C 137.494 300.947,137.374 300.511,137.384 299.644 C 137.395 298.817,137.534 298.219,137.694 298.317 C 137.854 298.415,137.982 298.878,137.979 299.345 M91.085 306.164 C 91.085 306.356,89.472 306.510,87.500 306.505 C 80.661 306.490,81.319 305.298,81.294 317.752 C 81.278 325.848,81.479 326.993,82.699 325.772 C 83.048 325.424,83.333 325.282,83.333 325.457 C 83.334 325.885,93.074 325.856,93.752 325.426 C 95.019 324.621,96.984 319.363,96.719 317.486 C 96.361 314.948,94.684 308.683,93.946 307.127 C 93.351 305.875,91.085 305.111,91.085 306.164 M306.246 307.074 C 305.825 308.391,304.650 316.885,304.653 318.589 C 304.654 319.130,305.058 320.078,305.551 320.694 L 306.448 321.814 312.042 321.793 C 315.118 321.782,317.941 321.757,318.313 321.739 C 319.197 321.695,319.266 310.795,318.389 309.917 C 318.016 309.544,317.994 309.292,318.309 308.978 C 319.410 307.877,317.443 306.013,316.300 307.074 C 315.984 307.366,315.876 307.382,316.026 307.114 C 316.441 306.374,315.106 306.149,311.933 306.426 C 309.794 306.613,308.915 306.562,308.915 306.252 C 308.915 305.114,306.650 305.812,306.246 307.074 M224.574 315.532 C 221.155 315.983,219.976 316.549,219.059 318.181 C 218.170 319.764,217.923 322.093,218.645 322.093 C 218.944 322.093,218.991 323.015,218.802 325.148 C 218.633 327.065,218.676 328.293,218.920 328.443 C 219.133 328.575,219.209 329.059,219.089 329.518 C 218.940 330.086,219.012 330.266,219.314 330.079 C 219.607 329.898,219.676 330.021,219.515 330.440 C 219.335 330.909,219.463 331.043,220.004 330.954 C 220.407 330.888,220.952 330.968,221.215 331.133 C 221.478 331.299,225.054 331.503,229.161 331.588 C 233.268 331.672,236.235 331.652,235.756 331.542 C 234.895 331.344,234.884 331.262,234.884 324.922 L 234.884 318.503 233.169 316.788 C 231.299 314.918,230.317 314.775,224.574 315.532 M167.261 317.261 L 165.891 318.630 165.891 324.459 C 165.891 330.543,165.755 331.086,164.120 331.502 C 162.739 331.855,173.029 331.739,175.969 331.370 C 177.568 331.169,179.287 331.005,179.789 331.005 C 180.455 331.006,180.640 330.843,180.472 330.405 C 180.323 330.016,180.398 329.901,180.686 330.079 C 180.988 330.266,181.060 330.086,180.911 329.518 C 180.791 329.059,180.867 328.575,181.080 328.443 C 181.324 328.293,181.367 327.065,181.198 325.148 C 181.009 323.015,181.056 322.093,181.355 322.093 C 182.163 322.093,181.829 319.557,180.911 318.721 C 179.438 317.379,178.312 316.980,174.453 316.433 C 169.070 315.670,168.823 315.699,167.261 317.261 M262.403 343.277 C 262.083 343.325,260.644 343.476,259.205 343.612 C 256.704 343.849,256.587 343.905,256.551 344.895 L 256.512 345.930 256.168 344.961 C 255.907 344.224,255.878 344.363,256.047 345.543 C 256.169 346.395,256.265 347.398,256.259 347.771 C 256.254 348.144,256.409 348.450,256.604 348.450 C 256.811 348.450,256.801 348.862,256.580 349.444 C 255.860 351.337,256.094 353.095,257.074 353.146 C 257.737 353.180,257.782 353.233,257.263 353.369 C 256.887 353.467,256.681 353.711,256.805 353.912 C 256.929 354.112,257.236 354.173,257.488 354.047 C 257.740 353.921,257.623 354.081,257.229 354.403 C 256.215 355.229,256.736 355.886,258.017 355.399 C 258.867 355.076,258.958 355.102,258.580 355.557 C 258.092 356.144,260.640 356.231,261.566 355.658 C 261.850 355.483,261.924 355.600,261.776 355.988 C 261.532 356.622,262.769 356.867,263.342 356.298 C 263.503 356.139,264.387 356.008,265.307 356.008 C 266.226 356.008,266.898 356.139,266.800 356.298 C 266.701 356.458,266.893 356.589,267.225 356.589 C 267.558 356.589,267.829 356.407,267.829 356.185 C 267.829 355.962,268.047 355.808,268.314 355.843 C 268.580 355.877,268.983 355.885,269.209 355.860 C 269.813 355.792,269.911 344.245,269.314 343.525 C 268.906 343.034,264.977 342.893,262.403 343.277 M73.360 343.801 C 68.812 344.198,68.883 344.104,68.916 349.709 C 68.928 351.575,68.775 353.101,68.577 353.101 C 68.379 353.101,68.217 354.758,68.217 356.783 C 68.217 358.979,68.373 360.465,68.605 360.465 C 68.818 360.465,69.016 361.206,69.045 362.112 C 69.074 363.018,69.170 363.391,69.259 362.941 C 69.416 362.142,69.554 362.127,75.227 362.311 C 81.957 362.529,81.877 362.563,83.796 358.764 L 84.949 356.482 84.098 352.950 C 81.636 342.725,82.012 343.046,73.360 343.801 M318.281 345.833 C 316.147 352.793,315.959 356.852,317.677 358.893 L 318.687 360.093 324.540 360.035 C 328.591 359.995,330.438 360.112,330.539 360.415 C 331.178 362.331,331.783 360.564,331.783 356.783 C 331.783 354.369,331.628 352.713,331.401 352.713 C 331.178 352.713,331.047 351.468,331.085 349.709 C 331.147 346.911,330.937 344.761,330.566 344.391 C 330.343 344.167,322.735 343.411,320.711 343.411 L 319.023 343.411 318.281 345.833 M141.656 354.668 C 141.408 355.070,142.820 355.888,143.166 355.542 C 143.609 355.099,143.422 354.745,142.636 354.539 C 142.210 354.428,141.769 354.486,141.656 354.668 M137.209 356.202 C 136.739 356.505,136.795 356.578,137.500 356.583 C 137.980 356.586,138.372 356.415,138.372 356.202 C 138.372 355.716,137.961 355.716,137.209 356.202 " stroke="none" fill="#ffffff" fill-rule="evenodd"></path></g></svg>