<?xml version="1.0" standalone="no"?>
<!DOCTYPE svg PUBLIC "-//W3C//DTD SVG 20010904//EN"
 "http://www.w3.org/TR/2001/REC-SVG-20010904/DTD/svg10.dtd">
<svg version="1.0" xmlns="http://www.w3.org/2000/svg"
 width="32.000000pt" height="31.000000pt" viewBox="0 0 32.000000 31.000000"
 preserveAspectRatio="xMidYMid meet">

<g transform="translate(0.000000,31.000000) scale(0.100000,-0.100000)"
fill="#000000" stroke="none">
<path d="M156 300 c-3 -8 -12 -33 -19 -55 -14 -40 -14 -40 -70 -43 -32 -2 -57
-6 -57 -10 0 -4 18 -23 40 -42 l40 -35 -15 -49 c-8 -27 -13 -51 -11 -54 3 -2
25 10 50 27 l46 30 46 -30 c25 -17 47 -29 50 -26 3 2 -3 26 -12 53 l-16 49 41
35 c22 20 41 39 41 43 0 4 -24 7 -54 7 l-54 0 -20 58 c-12 35 -22 51 -26 42z"/>
</g>
</svg>
